<svg xmlns="http://www.w3.org/2000/svg" id="Layer_1" data-name="Layer 1" viewBox="0 0 1024 483"><defs><style>.cls-4{fill:#232323}.cls-11{fill:#fdfdfc}.cls-12{fill:#fff}.cls-13{fill:#7bd7c5}</style></defs><path d="M431.17 269.63c-8.67 14.47-6.76 33.27 4.27 45.95l126.22 125.25 9.52 4.48c95.75 3.95 192.29.85 288.29.71 14.37 10.46 26.08 24.34 38.52 36.98H336S223.3 370.38 205 352c-8.52-8.55-25-30.08-34.67-35.83-7.4-4.4-18.89-1.22-27.33-2.17 3.05-10.02 3.31-18.64-3-27.5-31.4-27.04-59.87-65.71-91.47-91.53-4.59-3.75-7.3-6.29-13.53-6.97l-35-1V0h402c-12.59 36.22 42.92 34.54 28 0h468L793.49 103.99c-5.91 6.76-9.71 17.04-9.49 26.01H579.5c-1.62 1.41 1.11.97 1.98 1 26.46.79 53.06-.59 79.52 0-24.76.28-58.77-1.43-82.54.96-8.4.84-14.58 4.83-20.63 10.13-12.89 11.28-126.65 127.54-126.65 127.54ZM578.36 71.64c-3.94-4.2-32.31-34.67-34.86-34.67l-46.26 45.54 46.26 44.51 43.98-43.06c2.11-4.3-6.29-9.33-9.11-12.34Zm-295.6 136.31c0-9.33-7.56-16.89-16.89-16.89s-16.89 7.56-16.89 16.89 7.56 16.89 16.89 16.89 16.89-7.56 16.89-16.89Zm101.22 17.42-35.11 35.11L385 296.62l35.11-35.11-36.13-36.14Z" class="cls-4"/><path d="M35 188c6.22.68 8.94 3.23 13.53 6.97 31.6 25.82 60.07 64.49 91.47 91.53 6.32 8.85 6.05 17.47 3 27.5-27.41 27.55-54.38 55.67-82 83-18.33 18.14-38.02 38.34-56.98 55.52-1.24 1.12-2.08 2.49-4.02 2.48V188c11.16.89 24.07-1.2 35 0Z" class="cls-13"/><path d="M205 352c18.3 18.38 55 55 55 55l-76 76H0v-28c1.94.01 2.78-1.36 4.02-2.48C22.99 435.33 42.67 415.13 61 397l49.29 47.89L205 352Z" style="fill:#5f83bc"/><path d="m260 407 76 76H184l76-76z" class="cls-13"/><path d="M426 0c17.87 31.33-37.16 30.98-19 0h19Z" class="cls-4"/><path d="M1024 337v46c-.65-.06-1.35.09-2 0V0h1l1 337Z" style="fill:#74958c"/><path d="m1024 337-1-337h1v337z" style="fill:#1b3633"/><path d="M407 0c-18.16 30.98 36.87 31.33 19 0h4c14.92 34.54-40.59 36.22-28 0h5Z" class="cls-11"/><path d="M35 188c-10.93-1.2-23.84.89-35 0v-1l35 1Z" style="fill:#96cabe"/><path d="m205 352-94.71 92.89L61 397c27.62-27.33 54.59-55.45 82-83 8.44.95 19.93-2.23 27.33 2.17C180 321.92 196.48 343.45 205 352Z" class="cls-11"/><path d="M578.36 71.64c2.82 3.01 11.23 8.04 9.11 12.34l-43.98 43.06-46.26-44.51 46.26-45.54c2.55 0 30.92 30.46 34.86 34.67ZM348.875 260.496l35.114-35.102 36.127 36.14-35.114 35.101z" class="cls-13"/><path d="M282.76 207.95c0 9.33-7.56 16.89-16.89 16.89s-16.89-7.56-16.89-16.89 7.56-16.89 16.89-16.89 16.89 7.56 16.89 16.89Zm-2.4-.16c0-7.97-6.46-14.43-14.43-14.43s-14.43 6.46-14.43 14.43 6.46 14.43 14.43 14.43 14.43-6.46 14.43-14.43Z" style="fill:#4b4e54"/><path d="M784 130c0 .33-.02.67 0 1-40.98.35-82.03-.47-123 0-26.46-.59-53.06.79-79.52 0-.87-.03-3.6.41-1.98-1.01H784Z" style="fill:#321100"/><circle cx="265.93" cy="207.79" r="14.43" class="cls-4"/><path d="M53.46 47.95c-2.53 0-4.47.77-5.82 2.32-1.35 1.55-2.02 3.73-2.02 6.56s.75 5.07 2.25 6.61c1.5 1.55 3.51 2.32 6.05 2.32 1.35 0 2.49-.18 3.43-.54a23.5 23.5 0 0 0 2.69-1.23c.56.46.99 1.01 1.31 1.65.31.64.47 1.39.47 2.25 0 1.35-.75 2.49-2.25 3.43s-3.78 1.41-6.84 1.41c-2.2 0-4.28-.31-6.22-.94-1.94-.62-3.64-1.59-5.08-2.89-1.45-1.3-2.59-2.94-3.43-4.94-.84-1.99-1.26-4.37-1.26-7.13 0-2.57.4-4.83 1.21-6.79.81-1.96 1.91-3.61 3.31-4.96 1.4-1.35 3.04-2.37 4.91-3.06 1.88-.69 3.88-1.04 6.02-1.04 3.03 0 5.37.49 7.03 1.48 1.66.99 2.49 2.25 2.49 3.8 0 .86-.21 1.6-.64 2.22-.43.63-.92 1.12-1.48 1.48-.86-.56-1.77-1.04-2.74-1.43-.97-.39-2.1-.59-3.38-.59Zm39.43 12.84c0 1.78-.3 3.4-.91 4.86-.61 1.46-1.49 2.71-2.64 3.75-1.15 1.04-2.55 1.83-4.2 2.39-1.65.56-3.5.84-5.58.84s-3.93-.28-5.58-.84c-1.65-.56-3.04-1.36-4.19-2.39a10.387 10.387 0 0 1-2.64-3.75c-.61-1.46-.91-3.08-.91-4.86V41.94c.36-.07.94-.16 1.73-.27s1.55-.17 2.27-.17 1.42.06 2 .17c.58.12 1.06.32 1.46.62.4.3.69.71.89 1.23.2.53.3 1.22.3 2.07v15.05c0 1.58.44 2.81 1.31 3.7.87.89 2 1.33 3.38 1.33s2.55-.44 3.41-1.33c.86-.89 1.28-2.12 1.28-3.7v-18.7c.36-.07.94-.16 1.73-.27.79-.12 1.55-.17 2.27-.17s1.42.06 2 .17c.58.12 1.06.32 1.46.62s.69.71.89 1.23c.2.53.3 1.22.3 2.07v15.2Zm14.76-.84c-1.45-.49-2.76-1-3.95-1.51-1.18-.51-2.2-1.13-3.06-1.85a7.652 7.652 0 0 1-2-2.59c-.48-1-.72-2.23-.72-3.68 0-2.8 1.08-5.03 3.23-6.71 2.15-1.68 5.17-2.52 9.06-2.52 1.41 0 2.73.1 3.95.3 1.22.2 2.26.5 3.13.91.87.41 1.55.94 2.05 1.58.49.64.74 1.39.74 2.25s-.2 1.59-.59 2.2c-.4.61-.87 1.13-1.43 1.55-.72-.46-1.7-.86-2.91-1.21-1.22-.35-2.55-.52-4-.52s-2.57.21-3.26.62c-.69.41-1.04.93-1.04 1.55 0 .49.21.9.64 1.21.43.31 1.07.6 1.92.86l2.62.84c3.09.99 5.47 2.25 7.13 3.78 1.66 1.53 2.49 3.61 2.49 6.24 0 2.8-1.1 5.06-3.31 6.79-2.2 1.73-5.45 2.59-9.72 2.59-1.51 0-2.92-.12-4.22-.37-1.3-.25-2.44-.61-3.41-1.09-.97-.48-1.73-1.07-2.27-1.78s-.81-1.52-.81-2.44.28-1.77.84-2.44c.56-.67 1.17-1.19 1.83-1.55.92.72 2.05 1.35 3.38 1.88s2.79.79 4.37.79 2.75-.25 3.41-.74c.66-.49.99-1.07.99-1.73s-.26-1.16-.79-1.51c-.53-.35-1.27-.68-2.22-1.01l-2.07-.69Zm16.68-11.11c-.23-.36-.44-.86-.64-1.48s-.3-1.28-.3-1.97c0-1.28.29-2.2.86-2.76.58-.56 1.32-.84 2.25-.84h21.52c.23.36.44.86.64 1.48.2.63.3 1.28.3 1.97 0 1.28-.29 2.2-.86 2.76-.58.56-1.32.84-2.25.84h-5.48v22.8c-.36.1-.93.2-1.7.3-.77.1-1.54.15-2.29.15s-1.42-.06-2-.17c-.58-.12-1.06-.32-1.46-.62-.39-.3-.69-.71-.89-1.23s-.3-1.22-.3-2.07V48.85h-7.4Zm26.06 8c0-2.57.4-4.84 1.21-6.81.81-1.97 1.91-3.63 3.31-4.96 1.4-1.33 3.04-2.34 4.94-3.04 1.89-.69 3.94-1.04 6.14-1.04s4.25.35 6.14 1.04c1.89.69 3.54 1.7 4.96 3.04 1.41 1.33 2.52 2.99 3.33 4.96.81 1.97 1.21 4.24 1.21 6.81s-.39 4.84-1.18 6.83c-.79 1.99-1.88 3.65-3.28 4.98-1.4 1.33-3.05 2.34-4.96 3.04-1.91.69-3.98 1.04-6.22 1.04s-4.31-.35-6.22-1.06c-1.91-.71-3.55-1.74-4.94-3.08s-2.47-3.01-3.26-4.99c-.79-1.97-1.18-4.23-1.18-6.76Zm8.88 0c0 2.99.61 5.23 1.83 6.71 1.22 1.48 2.85 2.22 4.89 2.22s3.72-.74 4.94-2.22c1.22-1.48 1.83-3.72 1.83-6.71s-.6-5.18-1.8-6.66c-1.2-1.48-2.84-2.22-4.91-2.22s-3.68.73-4.91 2.2c-1.23 1.46-1.85 3.69-1.85 6.69Zm47.82 7.65c-.43.36-.98.65-1.65.86-.67.21-1.46.32-2.34.32-1.18 0-2.16-.15-2.94-.44-.77-.3-1.28-.81-1.5-1.53-.92-2.9-1.68-5.24-2.27-7.03-.59-1.79-1.05-3.36-1.38-4.71h-.25c-.1 1.94-.17 3.71-.22 5.31-.05 1.6-.08 3.15-.1 4.66-.02 1.51-.05 3.04-.1 4.59-.05 1.55-.12 3.26-.22 5.13-.43.17-.99.3-1.68.42s-1.38.17-2.07.17c-1.45 0-2.58-.23-3.38-.69-.81-.46-1.21-1.3-1.21-2.52l1.43-25.17c.26-.43.84-.89 1.73-1.38.89-.49 2.14-.74 3.75-.74 1.74 0 3.11.27 4.1.81.99.54 1.71 1.42 2.17 2.64.3.79.62 1.7.96 2.71.34 1.02.69 2.07 1.04 3.16s.68 2.16 1.01 3.23c.33 1.07.62 2.03.89 2.89h.25c.79-2.76 1.58-5.44 2.37-8.02.79-2.58 1.51-4.75 2.17-6.49.49-.26 1.13-.49 1.9-.67.77-.18 1.64-.27 2.59-.27 1.61 0 2.93.24 3.95.72s1.61 1.16 1.78 2.05c.13.66.27 1.67.42 3.04s.3 2.9.47 4.61c.16 1.71.33 3.52.49 5.43.16 1.91.32 3.74.47 5.5.15 1.76.27 3.37.37 4.84.1 1.46.16 2.59.2 3.38-.56.33-1.14.57-1.75.72-.61.15-1.39.22-2.34.22-1.25 0-2.3-.21-3.16-.64-.86-.43-1.32-1.27-1.38-2.52-.2-3.59-.32-6.81-.37-9.67-.05-2.86-.12-5.26-.22-7.21h-.25c-.33 1.28-.81 2.9-1.43 4.84-.62 1.94-1.38 4.43-2.27 7.45Zm40.12 8.14c-.56 0-1.22-.02-1.97-.05-.76-.03-1.54-.1-2.34-.2-.81-.1-1.6-.22-2.39-.37s-1.51-.35-2.17-.62c-1.81-.69-2.71-1.89-2.71-3.6V44.74c0-.69.19-1.23.57-1.6s.9-.68 1.55-.91c1.12-.39 2.52-.68 4.2-.86 1.68-.18 3.41-.27 5.18-.27 4.21 0 7.45.71 9.72 2.12 2.27 1.42 3.41 3.6 3.41 6.56 0 1.48-.43 2.76-1.28 3.83-.86 1.07-2.01 1.85-3.46 2.34 1.64.46 3.02 1.3 4.12 2.52s1.65 2.75 1.65 4.59c0 3.26-1.21 5.67-3.63 7.23-2.42 1.56-5.9 2.34-10.44 2.34Zm-3.21-19h3.6c1.41 0 2.44-.26 3.08-.79s.96-1.3.96-2.32c0-.89-.37-1.59-1.11-2.12-.74-.53-1.85-.79-3.33-.79-.49 0-1.06.02-1.7.05-.64.03-1.14.08-1.5.15v5.82Zm0 12.04c.46.13 1.05.22 1.78.27.72.05 1.42.07 2.07.07 1.32 0 2.41-.27 3.28-.81.87-.54 1.31-1.39 1.31-2.54 0-1.09-.36-1.86-1.09-2.32-.72-.46-1.83-.69-3.31-.69h-4.05v6.02Zm20.68-8.83c0-2.57.4-4.84 1.21-6.81.81-1.97 1.91-3.63 3.31-4.96 1.4-1.33 3.04-2.34 4.93-3.04 1.89-.69 3.94-1.04 6.14-1.04s4.25.35 6.14 1.04c1.89.69 3.54 1.7 4.96 3.04 1.41 1.33 2.52 2.99 3.33 4.96.81 1.97 1.21 4.24 1.21 6.81s-.39 4.84-1.18 6.83c-.79 1.99-1.88 3.65-3.28 4.98-1.4 1.33-3.05 2.34-4.96 3.04-1.91.69-3.98 1.04-6.22 1.04s-4.31-.35-6.22-1.06c-1.91-.71-3.55-1.74-4.94-3.08s-2.47-3.01-3.26-4.99c-.79-1.97-1.18-4.23-1.18-6.76Zm8.89 0c0 2.99.61 5.23 1.83 6.71 1.22 1.48 2.85 2.22 4.89 2.22s3.72-.74 4.94-2.22c1.22-1.48 1.83-3.72 1.83-6.71s-.6-5.18-1.8-6.66c-1.2-1.48-2.84-2.22-4.91-2.22s-3.68.73-4.91 2.2c-1.23 1.46-1.85 3.69-1.85 6.69Zm54.38 13.97c-.46.46-1.13.81-2 1.06-.87.25-1.92.37-3.13.37s-2.37-.18-3.46-.54c-1.09-.36-1.97-1.23-2.67-2.62l-4.89-9.97c-.49-1.02-.94-1.98-1.33-2.89-.39-.9-.82-1.95-1.28-3.13l-.3.05c.13 1.78.21 3.59.22 5.43.02 1.84.02 3.65.02 5.43v7.65c-.36.1-.91.2-1.65.3s-1.47.15-2.2.15-1.37-.05-1.92-.15-1.02-.3-1.38-.59c-.36-.3-.64-.7-.84-1.21-.2-.51-.3-1.18-.3-2V43.47c.46-.66 1.17-1.15 2.12-1.48.95-.33 1.97-.49 3.06-.49 1.22 0 2.38.19 3.48.57 1.1.38 1.98 1.24 2.64 2.59l4.93 9.97c.49 1.02.94 1.98 1.33 2.89.39.91.82 1.95 1.28 3.13l.25-.05c-.13-1.78-.21-3.55-.25-5.33-.03-1.78-.05-3.55-.05-5.33v-8c.36-.1.91-.2 1.65-.3s1.47-.15 2.2-.15c1.45 0 2.55.26 3.31.76.76.51 1.13 1.57 1.13 3.18V70.8Zm6.42-24.29c0-1.41.41-2.53 1.23-3.36.82-.82 1.94-1.23 3.36-1.23h16.29c.23.36.44.84.62 1.43s.27 1.22.27 1.88c0 1.25-.27 2.14-.81 2.67-.54.53-1.26.79-2.15.79h-10.41v4.59h11.1c.23.36.44.83.62 1.41s.27 1.19.27 1.85c0 1.25-.26 2.14-.79 2.67-.53.53-1.23.79-2.12.79h-9.08v5.18h12.68c.23.36.44.84.62 1.43s.27 1.22.27 1.88c0 1.25-.27 2.15-.81 2.69s-1.26.81-2.15.81h-14.41c-1.42 0-2.53-.41-3.36-1.23-.82-.82-1.23-1.94-1.23-3.36V46.53ZM46.84 110.27c-.36.1-.93.2-1.7.3-.77.1-1.54.15-2.29.15s-1.42-.06-2-.17c-.58-.12-1.06-.32-1.46-.62-.39-.3-.69-.71-.89-1.23s-.3-1.22-.3-2.07V83.39c0-.69.19-1.23.57-1.6.38-.38.9-.68 1.55-.91 1.12-.39 2.39-.68 3.82-.86s2.87-.27 4.32-.27c4.54 0 8.01.97 10.41 2.91 2.4 1.94 3.6 4.57 3.6 7.9 0 1.61-.25 3.07-.76 4.37a9.135 9.135 0 0 1-2.27 3.36c-1 .94-2.27 1.66-3.8 2.17-1.53.51-3.3.76-5.31.76h-3.5v9.08Zm2.57-15.84c1.38 0 2.44-.32 3.18-.96s1.11-1.62 1.11-2.94-.39-2.21-1.16-2.89c-.77-.67-1.9-1.01-3.38-1.01-.53 0-.96 0-1.31.02-.35.02-.7.06-1.06.12v7.65h2.62Zm38.89 6.37v9.48c-.36.1-.93.2-1.7.3-.77.1-1.54.15-2.29.15s-1.42-.06-2-.17c-.58-.12-1.05-.32-1.43-.62-.38-.3-.67-.71-.86-1.23s-.3-1.22-.3-2.07V83.4c0-.69.19-1.23.57-1.6.38-.38.9-.68 1.55-.91 1.12-.39 2.42-.68 3.9-.86 1.48-.18 3.06-.27 4.74-.27 4.54 0 7.96.95 10.27 2.86 2.3 1.91 3.45 4.49 3.45 7.75 0 2.04-.53 3.78-1.58 5.23-1.05 1.45-2.3 2.57-3.75 3.36 1.18 1.61 2.35 3.13 3.5 4.54 1.15 1.42 2.06 2.7 2.71 3.85-.33 1.15-.93 2.03-1.8 2.64-.87.61-1.85.91-2.94.91-.72 0-1.35-.08-1.88-.25-.53-.17-.99-.4-1.38-.69-.39-.3-.76-.66-1.09-1.09-.33-.43-.64-.89-.94-1.38l-4.15-6.66h-2.62Zm3.11-6.56c1.25 0 2.24-.32 2.96-.96.72-.64 1.09-1.59 1.09-2.84s-.4-2.2-1.21-2.84c-.81-.64-2.08-.96-3.83-.96-.49 0-.89.02-1.18.05-.3.03-.63.08-.99.15v7.4h3.16Zm29.31 1.23c0-2.57.4-4.84 1.21-6.81.81-1.97 1.91-3.63 3.31-4.96 1.4-1.33 3.04-2.34 4.94-3.04 1.89-.69 3.94-1.04 6.14-1.04s4.25.35 6.14 1.04c1.89.69 3.54 1.7 4.96 3.04 1.41 1.33 2.52 2.99 3.33 4.96.81 1.97 1.21 4.24 1.21 6.81s-.4 4.84-1.18 6.83c-.79 1.99-1.88 3.65-3.28 4.98-1.4 1.33-3.05 2.34-4.96 3.04-1.91.69-3.98 1.04-6.22 1.04s-4.31-.35-6.22-1.06c-1.91-.71-3.55-1.74-4.94-3.08s-2.47-3.01-3.26-4.99c-.79-1.97-1.18-4.23-1.18-6.76Zm8.89 0c0 2.99.61 5.23 1.83 6.71 1.22 1.48 2.85 2.22 4.89 2.22s3.72-.74 4.94-2.22c1.22-1.48 1.83-3.72 1.83-6.71s-.6-5.18-1.8-6.66c-1.2-1.48-2.84-2.22-4.91-2.22s-3.68.73-4.91 2.2c-1.23 1.46-1.85 3.69-1.85 6.69Zm48.76 14.8c-.36.1-.93.2-1.7.3s-1.54.15-2.29.15-1.42-.06-2-.17c-.58-.12-1.06-.32-1.46-.62-.39-.3-.69-.71-.89-1.23s-.3-1.22-.3-2.07V83.39c0-.69.19-1.23.57-1.6.38-.38.9-.68 1.56-.91 1.12-.39 2.39-.68 3.82-.86s2.87-.27 4.32-.27c4.54 0 8.01.97 10.41 2.91 2.4 1.94 3.6 4.57 3.6 7.9 0 1.61-.26 3.07-.77 4.37s-1.27 2.42-2.27 3.36-2.27 1.66-3.8 2.17c-1.53.51-3.3.76-5.3.76h-3.5v9.08Zm2.56-15.84c1.38 0 2.44-.32 3.18-.96s1.11-1.62 1.11-2.94-.39-2.21-1.16-2.89c-.77-.67-1.9-1.01-3.38-1.01-.53 0-.96 0-1.31.02-.35.02-.7.06-1.06.12v7.65h2.62Zm30.3-9.28c0-1.41.41-2.53 1.23-3.36.82-.82 1.94-1.23 3.36-1.23h16.29c.23.36.44.84.62 1.43s.27 1.22.27 1.88c0 1.25-.27 2.14-.81 2.67-.54.53-1.26.79-2.15.79h-10.41v4.59h11.1c.23.36.44.83.62 1.41s.27 1.19.27 1.85c0 1.25-.26 2.14-.79 2.67-.53.53-1.23.79-2.12.79h-9.08v5.18h12.68c.23.36.44.84.62 1.43s.27 1.22.27 1.88c0 1.25-.27 2.15-.81 2.69s-1.26.81-2.15.81h-14.41c-1.42 0-2.53-.41-3.36-1.23-.82-.82-1.23-1.94-1.23-3.36V85.16Zm48.47 15.65v9.48c-.36.1-.93.2-1.7.3-.77.1-1.54.15-2.29.15s-1.42-.06-2-.17c-.58-.12-1.05-.32-1.43-.62s-.67-.71-.86-1.23-.3-1.22-.3-2.07V83.4c0-.69.19-1.23.57-1.6s.9-.68 1.55-.91c1.12-.39 2.42-.68 3.9-.86s3.06-.27 4.74-.27c4.54 0 7.96.95 10.26 2.86s3.46 4.49 3.46 7.75c0 2.04-.53 3.78-1.58 5.23-1.05 1.45-2.3 2.57-3.75 3.36 1.18 1.61 2.35 3.13 3.5 4.54 1.15 1.42 2.06 2.7 2.71 3.85-.33 1.15-.93 2.03-1.8 2.64-.87.61-1.85.91-2.94.91-.72 0-1.35-.08-1.88-.25-.53-.17-.99-.4-1.38-.69-.4-.3-.76-.66-1.09-1.09-.33-.43-.64-.89-.94-1.38l-4.15-6.66h-2.62Zm3.11-6.56c1.25 0 2.24-.32 2.96-.96s1.09-1.59 1.09-2.84-.4-2.2-1.21-2.84c-.81-.64-2.08-.96-3.83-.96-.49 0-.89.02-1.18.05-.3.03-.62.08-.99.15v7.4h3.16Zm29.07-6.77c-.23-.36-.44-.86-.64-1.48s-.3-1.28-.3-1.97c0-1.28.29-2.2.86-2.76.58-.56 1.32-.84 2.25-.84h21.52c.23.36.44.86.64 1.48.2.63.3 1.28.3 1.97 0 1.28-.29 2.2-.86 2.76-.58.56-1.32.84-2.25.84h-5.48v22.8c-.36.1-.93.2-1.7.3-.77.1-1.54.15-2.29.15s-1.42-.06-2-.17c-.58-.12-1.06-.32-1.46-.62s-.69-.71-.89-1.23c-.2-.53-.3-1.22-.3-2.07V87.48h-7.4Zm58.43 22.8c-.36.1-.92.2-1.68.3s-1.5.15-2.22.15c-1.51 0-2.65-.25-3.41-.77-.76-.51-1.13-1.59-1.13-3.23v-6.66c-.82-1.22-1.71-2.57-2.67-4.05s-1.89-2.99-2.81-4.54-1.78-3.07-2.57-4.57c-.79-1.5-1.43-2.87-1.92-4.12.43-.59 1.01-1.13 1.75-1.63.74-.49 1.65-.74 2.74-.74 1.28 0 2.33.26 3.13.79.81.53 1.57 1.51 2.29 2.96l4.1 8.24h.3c.46-1.02.86-1.95 1.21-2.79.35-.84.68-1.68 1.01-2.52.33-.84.67-1.71 1.04-2.62s.77-1.95 1.23-3.13c.59-.3 1.25-.53 1.97-.69.72-.16 1.41-.25 2.07-.25 1.15 0 2.13.3 2.94.91.81.61 1.21 1.52 1.21 2.74 0 .39-.08.87-.25 1.43-.17.56-.54 1.41-1.13 2.54-.59 1.14-1.46 2.67-2.59 4.61-1.14 1.94-2.67 4.48-4.62 7.6v10.02Z" class="cls-12"/><path d="m347.47 402.2 29.55-25.65 4.8 23.93 24.06-23.93" style="opacity:.5;stroke-width:3px;fill:none;stroke:#fff;stroke-linecap:round;stroke-linejoin:round"/><circle cx="775.79" cy="134.19" r="73.76" style="fill:none;stroke:#fff;stroke-linecap:round;stroke-linejoin:round;opacity:.21;stroke-width:13px"/><path d="M557.82 142.09c6.05-5.3 12.24-9.29 20.63-10.13 23.77-2.39 57.78-.68 82.54-.96 40.97-.47 82.02.35 123 0 1.18 21.2 20.45 33.74 33.6 47.38 51.18 53.11 103.65 104.82 155.45 156.9 5.88 5.91 45.54 47.27 48.95 47.72.65.09 1.35-.06 2 0v100h-126c-12.44-12.63-24.15-26.51-38.52-36.98-96.01.14-192.54 3.24-288.29-.71l-9.52-4.48-126.22-125.25c-11.04-12.68-12.94-31.48-4.27-45.95 0 0 113.76-116.26 126.65-127.54Z" style="fill:#fb9728"/><path d="M462.3 84.68c-15.68 0-28.54 12.93-28.54 28.54v28.54h-28.54c-15.61 0-28.54 12.86-28.54 28.54s12.93 28.54 28.54 28.54h19.03c8.11 0 14.58-4.07 19.7-9.55l94.43 94.47c-5.53 5.11-9.63 11.58-9.63 19.73v19.03c0 15.61 12.86 28.54 28.54 28.54s28.54-12.93 28.54-28.54v-28.54h28.54c15.61 0 28.54-12.86 28.54-28.54s-12.93-28.54-28.54-28.54h-19.03c-8.11 0-14.58 4.07-19.7 9.55l-94.43-94.47c5.53-5.11 9.63-11.58 9.63-19.73v-19.03c0-15.61-12.86-28.54-28.54-28.54Z" class="cls-12"/><path d="M1022 0v383c-3.41-.45-43.06-41.81-48.95-47.72-51.81-52.07-104.27-103.79-155.45-156.9-13.15-13.64-32.42-26.18-33.6-47.38-.02-.33 0-.67 0-1-.22-8.97 3.58-19.25 9.49-26.01L898 0h124Z" class="cls-13"/><rect width="196.79" height="59" x="677.39" y="322.5" rx="10" ry="10" style="stroke-width:3px;fill:none;stroke:#fff;stroke-linecap:round;stroke-linejoin:round"/><path d="m753.75 345.62-5.04 1.56c-.5-.34-1.01-.81-1.51-1.41-.5-.6-.76-1.44-.76-2.52 0-2.02 1.23-3.43 3.68-4.24l5.65-1.92h1.87c1.45 0 2.59.42 3.43 1.26.84.84 1.26 1.98 1.26 3.43v26.27c-.37.07-.92.16-1.64.28-.72.12-1.45.18-2.19.18s-1.4-.05-1.99-.15c-.59-.1-1.08-.3-1.49-.6-.4-.3-.71-.71-.93-1.24-.22-.52-.33-1.2-.33-2.04v-18.86Zm13.11 18.4c0-1.41.44-2.59 1.31-3.53.87-.94 2.07-1.41 3.58-1.41s2.71.47 3.58 1.41c.87.94 1.31 2.12 1.31 3.53s-.44 2.59-1.31 3.53-2.07 1.41-3.58 1.41-2.71-.47-3.58-1.41-1.31-2.12-1.31-3.53Zm39.07-11.24c0 2.59-.34 4.89-1.01 6.91-.67 2.02-1.61 3.71-2.8 5.07a11.709 11.709 0 0 1-4.29 3.1c-1.66.71-3.47 1.06-5.42 1.06s-3.81-.35-5.47-1.06c-1.66-.71-3.09-1.74-4.29-3.1-1.19-1.36-2.12-3.05-2.77-5.07s-.98-4.32-.98-6.91.33-4.88.98-6.88c.66-2 1.58-3.68 2.77-5.04 1.19-1.36 2.62-2.39 4.29-3.1 1.66-.71 3.49-1.06 5.47-1.06s3.76.35 5.42 1.06c1.66.71 3.09 1.74 4.29 3.1 1.19 1.36 2.12 3.04 2.8 5.04.67 2 1.01 4.29 1.01 6.88Zm-8.62 0c0-2.96-.43-5.24-1.29-6.86-.86-1.61-2.08-2.42-3.66-2.42s-2.78.81-3.6 2.42c-.82 1.61-1.24 3.9-1.24 6.86s.41 5.25 1.24 6.88c.82 1.63 2.02 2.44 3.6 2.44s2.8-.81 3.66-2.44c.86-1.63 1.29-3.92 1.29-6.88Z" class="cls-12"/><path d="m116.53 188.43 23.49-20.39 3.82 19.02 19.12-19.02" style="opacity:.07;stroke-width:3px;fill:none;stroke:#fff;stroke-linecap:round;stroke-linejoin:round"/></svg>